<?xml version="1.0" encoding="UTF-8"?>
<svg xmlns="http://www.w3.org/2000/svg" xmlns:xlink="http://www.w3.org/1999/xlink" width="1920" height="1080" viewBox="0 0 1920 1080">
<defs>
<g>
<g id="glyph-0-0">
<path d="M 25.488281 0.652344 C 35.417969 0.652344 43.359375 -5.402344 45.050781 -15.265625 L 38.867188 -15.265625 C 37.5 -8.660156 31.835938 -5.078125 25.488281 -5.078125 C 16.796875 -5.078125 9.992188 -11.816406 9.992188 -24.21875 C 9.992188 -36.652344 16.765625 -43.425781 25.488281 -43.425781 C 31.804688 -43.425781 37.5 -39.875 38.867188 -33.234375 L 45.050781 -33.234375 C 43.328125 -43.230469 35.320312 -49.152344 25.488281 -49.152344 C 13.054688 -49.152344 3.972656 -39.617188 3.972656 -24.21875 C 3.972656 -8.855469 13.054688 0.652344 25.488281 0.652344 Z "/>
</g>
<g id="glyph-0-1">
<path d="M 11.003906 -21.808594 C 11.003906 -28.027344 14.941406 -31.574219 20.183594 -31.574219 C 25.261719 -31.574219 28.386719 -28.222656 28.386719 -22.625 L 28.386719 0 L 34.277344 0 L 34.277344 -23.113281 C 34.277344 -32.324219 29.296875 -36.847656 21.941406 -36.847656 C 17.1875 -36.847656 13.378906 -34.929688 11.003906 -30.078125 L 11.003906 -48.503906 L 5.144531 -48.503906 L 5.144531 0 L 11.003906 0 Z "/>
</g>
<g id="glyph-0-2">
<path d="M 15.332031 0.847656 C 21.484375 0.847656 24.902344 -2.375 26.140625 -4.949219 L 26.53125 -4.949219 L 26.53125 0 L 32.292969 0 L 32.292969 -23.992188 C 32.292969 -35.351562 23.535156 -36.847656 18.652344 -36.847656 C 13.019531 -36.847656 6.769531 -34.832031 3.972656 -28.222656 L 9.601562 -26.367188 C 10.742188 -28.90625 13.574219 -31.707031 18.816406 -31.707031 C 23.859375 -31.707031 26.433594 -29.101562 26.433594 -24.578125 L 26.433594 -24.382812 C 26.433594 -21.679688 23.566406 -21.875 17.089844 -21.0625 C 10.351562 -20.214844 2.929688 -18.683594 2.929688 -10.351562 C 2.929688 -3.191406 8.429688 0.847656 15.332031 0.847656 Z M 16.339844 -4.328125 C 11.980469 -4.328125 8.820312 -6.28125 8.820312 -10.058594 C 8.820312 -14.191406 12.566406 -15.558594 16.828125 -16.113281 C 19.074219 -16.40625 25.457031 -17.058594 26.433594 -18.195312 L 26.433594 -13.152344 C 26.433594 -8.691406 22.820312 -4.328125 16.339844 -4.328125 Z "/>
</g>
<g id="glyph-0-3">
<path d="M 11.003906 -21.808594 C 11.003906 -28.027344 14.941406 -31.574219 20.183594 -31.574219 C 25.261719 -31.574219 28.386719 -28.222656 28.386719 -22.625 L 28.386719 0 L 34.246094 0 L 34.246094 -23.113281 C 34.246094 -32.324219 29.296875 -36.847656 21.941406 -36.847656 C 17.058594 -36.847656 13.152344 -34.796875 10.808594 -29.65625 L 10.773438 -36.394531 L 5.144531 -36.394531 L 5.144531 0 L 11.003906 0 Z "/>
</g>
<g id="glyph-0-4">
<path d="M 19.953125 0.78125 C 27.082031 0.78125 32.878906 -3.09375 34.832031 -9.570312 L 29.230469 -11.164062 C 28.15625 -7.226562 24.835938 -4.460938 19.953125 -4.460938 C 12.695312 -4.460938 9.34375 -10.808594 9.34375 -17.96875 C 9.34375 -25.226562 12.695312 -31.609375 19.953125 -31.609375 C 24.738281 -31.609375 27.996094 -28.9375 29.070312 -25.195312 L 34.699219 -26.789062 C 32.714844 -33.136719 26.984375 -36.847656 19.953125 -36.847656 C 10.058594 -36.847656 3.386719 -29.363281 3.386719 -17.96875 C 3.386719 -6.738281 10.058594 0.78125 19.953125 0.78125 Z "/>
</g>
<g id="glyph-0-5">
<path d="M 20.441406 0.78125 C 27.898438 0.78125 33.332031 -2.960938 35.027344 -8.464844 L 29.363281 -10.027344 C 27.996094 -6.316406 24.773438 -4.425781 20.476562 -4.425781 C 14.03125 -4.425781 9.601562 -8.59375 9.308594 -16.210938 L 35.613281 -16.210938 L 35.613281 -18.652344 C 35.613281 -32.097656 27.472656 -36.847656 19.757812 -36.847656 C 9.832031 -36.847656 3.386719 -29.070312 3.386719 -17.902344 C 3.386719 -6.707031 9.894531 0.78125 20.441406 0.78125 Z M 9.34375 -21.160156 C 9.699219 -26.726562 13.507812 -31.640625 19.757812 -31.640625 C 25.75 -31.640625 29.101562 -27.34375 29.65625 -21.160156 Z "/>
</g>
</g>
</defs>
<g fill="rgb(0%, 0%, 0%)" fill-opacity="1">
<use xlink:href="#glyph-0-0" x="30" y="84.583984"/>
<use xlink:href="#glyph-0-1" x="79" y="84.583984"/>
<use xlink:href="#glyph-0-2" x="118" y="84.583984"/>
<use xlink:href="#glyph-0-3" x="155" y="84.583984"/>
<use xlink:href="#glyph-0-4" x="194" y="84.583984"/>
<use xlink:href="#glyph-0-5" x="232" y="84.583984"/>
</g>
</svg>
