<?xml version="1.0" encoding="UTF-8"?>
<svg xmlns="http://www.w3.org/2000/svg" xmlns:xlink="http://www.w3.org/1999/xlink" width="854" height="480" viewBox="0 0 854 480">
<defs>
<g>
<g id="glyph-0-0">
<path d="M 18.488281 -7.292969 L 26.757812 -7.292969 L 26.757812 -20.085938 L 39.324219 -20.085938 L 39.324219 -27.929688 L 26.757812 -27.929688 L 26.757812 -40.722656 L 18.488281 -40.722656 L 18.488281 -27.929688 L 5.957031 -27.929688 L 5.957031 -20.085938 L 18.488281 -20.085938 Z "/>
</g>
<g id="glyph-0-1">
<path d="M 21.453125 0.652344 C 32.257812 0.652344 39.972656 -5.304688 39.972656 -13.574219 C 39.972656 -19.597656 36.199219 -23.925781 29.132812 -24.871094 L 29.132812 -25.226562 C 34.503906 -26.269531 38.214844 -30.109375 38.214844 -35.546875 C 38.214844 -43.132812 31.574219 -49.152344 21.613281 -49.152344 C 11.75 -49.152344 4.296875 -43.359375 4.167969 -35.058594 L 13.738281 -35.058594 C 13.835938 -38.835938 17.316406 -41.210938 21.550781 -41.210938 C 25.75 -41.210938 28.582031 -38.671875 28.582031 -34.929688 C 28.582031 -31.054688 25.292969 -28.417969 20.574219 -28.417969 L 16.082031 -28.417969 L 16.082031 -21.027344 L 20.574219 -21.027344 C 26.203125 -21.027344 29.621094 -18.230469 29.621094 -14.226562 C 29.621094 -10.285156 26.269531 -7.585938 21.484375 -7.585938 C 16.894531 -7.585938 13.378906 -9.960938 13.214844 -13.605469 L 3.222656 -13.605469 C 3.351562 -5.175781 10.90625 0.652344 21.453125 0.652344 Z "/>
</g>
<g id="glyph-0-2">
<path d="M 20.441406 0.652344 C 31.121094 0.652344 38.410156 -6.347656 38.410156 -16.113281 C 38.410156 -25.421875 31.933594 -32.0625 23.175781 -32.0625 C 19.011719 -32.0625 15.363281 -30.371094 13.640625 -28.027344 L 13.378906 -28.027344 L 14.617188 -40.300781 L 35.742188 -40.300781 L 35.742188 -48.503906 L 6.378906 -48.503906 L 4.070312 -23.046875 L 12.988281 -21.484375 C 14.453125 -23.40625 17.382812 -24.675781 20.28125 -24.675781 C 25.226562 -24.675781 28.777344 -21.0625 28.777344 -15.886719 C 28.777344 -10.742188 25.324219 -7.226562 20.441406 -7.226562 C 16.308594 -7.226562 12.890625 -9.796875 12.726562 -13.605469 L 3.027344 -13.605469 C 3.253906 -5.304688 10.480469 0.652344 20.441406 0.652344 Z "/>
</g>
</g>
</defs>
<g fill="rgb(10.196078%, 47.843137%, 10.196078%)" fill-opacity="1">
<use xlink:href="#glyph-0-0" x="30" y="84.583984"/>
<use xlink:href="#glyph-0-1" x="75" y="84.583984"/>
<use xlink:href="#glyph-0-2" x="118" y="84.583984"/>
</g>
</svg>
