<?xml version="1.0" encoding="UTF-8"?>
<svg xmlns="http://www.w3.org/2000/svg" xmlns:xlink="http://www.w3.org/1999/xlink" width="1920" height="1080" viewBox="0 0 1920 1080">
<defs>
<g>
<g id="glyph-0-0">
<path d="M 36.554688 -43.832031 L 36.554688 -38.613281 L 21.78125 -38.613281 L 21.78125 0 L 15.753906 0 L 15.753906 -38.613281 L 0.984375 -38.613281 L 0.984375 -43.832031 Z "/>
</g>
<g id="glyph-0-1">
<path d="M 16.621094 -3.460938 C 20.179688 -3.460938 22.621094 -4.808594 23.945312 -7.503906 C 25.269531 -10.199219 25.929688 -13.199219 25.929688 -16.5 C 25.929688 -19.484375 25.453125 -21.910156 24.496094 -23.78125 C 22.984375 -26.726562 20.378906 -28.199219 16.679688 -28.199219 C 13.398438 -28.199219 11.011719 -26.945312 9.519531 -24.4375 C 8.027344 -21.929688 7.28125 -18.90625 7.28125 -15.367188 C 7.28125 -11.964844 8.027344 -9.128906 9.519531 -6.863281 C 11.011719 -4.59375 13.378906 -3.460938 16.621094 -3.460938 Z M 16.828125 -32.882812 C 20.945312 -32.882812 24.429688 -31.511719 27.273438 -28.765625 C 30.117188 -26.019531 31.539062 -21.980469 31.539062 -16.648438 C 31.539062 -11.496094 30.285156 -7.242188 27.78125 -3.878906 C 25.273438 -0.515625 21.382812 1.164062 16.113281 1.164062 C 11.71875 1.164062 8.226562 -0.324219 5.640625 -3.296875 C 3.054688 -6.269531 1.761719 -10.265625 1.761719 -15.277344 C 1.761719 -20.648438 3.125 -24.925781 5.847656 -28.109375 C 8.574219 -31.292969 12.234375 -32.882812 16.828125 -32.882812 Z "/>
</g>
<g id="glyph-0-2">
<path d="M 17.425781 -3.609375 C 19.933594 -3.609375 22.015625 -4.660156 23.675781 -6.757812 C 25.335938 -8.855469 26.167969 -11.996094 26.167969 -16.171875 C 26.167969 -18.71875 25.800781 -20.90625 25.066406 -22.738281 C 23.671875 -26.257812 21.125 -28.019531 17.425781 -28.019531 C 13.707031 -28.019531 11.160156 -26.160156 9.789062 -22.4375 C 9.050781 -20.449219 8.683594 -17.921875 8.683594 -14.859375 C 8.683594 -12.394531 9.050781 -10.292969 9.789062 -8.5625 C 11.179688 -5.261719 13.726562 -3.609375 17.425781 -3.609375 Z M 3.519531 -31.808594 L 8.742188 -31.808594 L 8.742188 -27.570312 C 9.816406 -29.023438 10.992188 -30.148438 12.265625 -30.941406 C 14.074219 -32.136719 16.203125 -32.734375 18.648438 -32.734375 C 22.269531 -32.734375 25.34375 -31.347656 27.871094 -28.570312 C 30.398438 -25.796875 31.660156 -21.832031 31.660156 -16.679688 C 31.660156 -9.71875 29.839844 -4.746094 26.199219 -1.761719 C 23.890625 0.128906 21.207031 1.074219 18.140625 1.074219 C 15.734375 1.074219 13.714844 0.546875 12.085938 -0.507812 C 11.128906 -1.105469 10.066406 -2.128906 8.890625 -3.582031 L 8.890625 12.742188 L 3.519531 12.742188 Z "/>
</g>
<g id="glyph-0-3">
<rect x="0" y="0" width="0" height="0" mask="url(#mask-0)"/>
</g>
<g id="glyph-0-4">
<path d="M 5.011719 -40.878906 L 10.445312 -40.878906 L 10.445312 -31.957031 L 15.546875 -31.957031 L 15.546875 -27.570312 L 10.445312 -27.570312 L 10.445312 -6.714844 C 10.445312 -5.601562 10.820312 -4.855469 11.578125 -4.476562 C 11.996094 -4.257812 12.691406 -4.148438 13.667969 -4.148438 C 13.925781 -4.148438 14.203125 -4.152344 14.5 -4.164062 C 14.800781 -4.171875 15.148438 -4.199219 15.546875 -4.238281 L 15.546875 0 C 14.929688 0.179688 14.289062 0.308594 13.621094 0.386719 C 12.953125 0.46875 12.234375 0.507812 11.457031 0.507812 C 8.953125 0.507812 7.25 -0.132812 6.355469 -1.417969 C 5.460938 -2.699219 5.011719 -4.367188 5.011719 -6.414062 L 5.011719 -27.570312 L 0.6875 -27.570312 L 0.6875 -31.957031 L 5.011719 -31.957031 Z "/>
</g>
<g id="glyph-0-5">
<path d="M 8.054688 -8.503906 C 8.054688 -6.953125 8.625 -5.730469 9.757812 -4.832031 C 10.890625 -3.9375 12.234375 -3.492188 13.785156 -3.492188 C 15.675781 -3.492188 17.503906 -3.929688 19.277344 -4.804688 C 22.261719 -6.257812 23.75 -8.632812 23.75 -11.9375 L 23.75 -16.261719 C 23.09375 -15.84375 22.25 -15.496094 21.214844 -15.21875 C 20.179688 -14.941406 19.167969 -14.742188 18.171875 -14.621094 L 14.917969 -14.203125 C 12.96875 -13.945312 11.507812 -13.535156 10.53125 -12.980469 C 8.882812 -12.046875 8.054688 -10.554688 8.054688 -8.503906 Z M 21.066406 -19.367188 C 22.300781 -19.523438 23.125 -20.042969 23.542969 -20.917969 C 23.78125 -21.394531 23.902344 -22.082031 23.902344 -22.976562 C 23.902344 -24.804688 23.25 -26.132812 21.945312 -26.960938 C 20.644531 -27.785156 18.777344 -28.199219 16.351562 -28.199219 C 13.546875 -28.199219 11.558594 -27.441406 10.382812 -25.929688 C 9.726562 -25.09375 9.300781 -23.851562 9.101562 -22.199219 L 4.089844 -22.199219 C 4.1875 -26.136719 5.464844 -28.878906 7.921875 -30.421875 C 10.378906 -31.964844 13.230469 -32.734375 16.472656 -32.734375 C 20.230469 -32.734375 23.285156 -32.015625 25.632812 -30.585938 C 27.960938 -29.152344 29.121094 -26.925781 29.121094 -23.902344 L 29.121094 -5.492188 C 29.121094 -4.933594 29.238281 -4.484375 29.464844 -4.148438 C 29.695312 -3.808594 30.175781 -3.640625 30.914062 -3.640625 C 31.152344 -3.640625 31.421875 -3.65625 31.71875 -3.683594 C 32.015625 -3.714844 32.335938 -3.757812 32.671875 -3.820312 L 32.671875 0.148438 C 31.835938 0.386719 31.203125 0.535156 30.765625 0.597656 C 30.328125 0.65625 29.730469 0.6875 28.972656 0.6875 C 27.125 0.6875 25.78125 0.03125 24.945312 -1.28125 C 24.507812 -1.980469 24.199219 -2.964844 24.019531 -4.238281 C 22.925781 -2.804688 21.355469 -1.5625 19.304688 -0.507812 C 17.257812 0.546875 15 1.074219 12.53125 1.074219 C 9.566406 1.074219 7.144531 0.175781 5.265625 -1.625 C 3.386719 -3.425781 2.445312 -5.679688 2.445312 -8.386719 C 2.445312 -11.347656 3.371094 -13.644531 5.222656 -15.277344 C 7.070312 -16.910156 9.5 -17.914062 12.503906 -18.292969 Z "/>
</g>
<g id="glyph-0-6">
<path d="M 4.089844 -43.832031 L 9.457031 -43.832031 L 9.457031 0 L 4.089844 0 Z "/>
</g>
</g>
<image id="source-53" x="0" y="0" width="0" height="0"/>
<mask id="mask-0">
<use xlink:href="#source-53"/>
</mask>
</defs>
<g fill="rgb(100%, 100%, 100%)" fill-opacity="1">
<use xlink:href="#glyph-0-0" x="30" y="67.056641"/>
<use xlink:href="#glyph-0-1" x="61" y="67.056641"/>
<use xlink:href="#glyph-0-2" x="95" y="67.056641"/>
<use xlink:href="#glyph-0-3" x="129" y="67.056641"/>
<use xlink:href="#glyph-0-0" x="144" y="67.056641"/>
<use xlink:href="#glyph-0-1" x="175" y="67.056641"/>
<use xlink:href="#glyph-0-4" x="209" y="67.056641"/>
<use xlink:href="#glyph-0-5" x="226" y="67.056641"/>
<use xlink:href="#glyph-0-6" x="260" y="67.056641"/>
</g>
</svg>
