<?xml version="1.0" encoding="UTF-8"?>
<svg xmlns="http://www.w3.org/2000/svg" xmlns:xlink="http://www.w3.org/1999/xlink" width="1920" height="1080" viewBox="0 0 1920 1080">
<defs>
<g>
<g id="glyph-0-0">
<path d="M 21.027344 0.652344 C 30.925781 0.652344 37.371094 -6.609375 37.371094 -15.65625 C 37.371094 -25.03125 30.46875 -31.707031 22.167969 -31.707031 C 17.121094 -31.707031 12.824219 -29.296875 10.222656 -25.261719 L 9.832031 -25.261719 C 9.832031 -36.914062 14.324219 -43.683594 21.777344 -43.683594 C 26.824219 -43.683594 29.851562 -40.496094 30.925781 -36.296875 L 36.980469 -36.296875 C 35.808594 -43.914062 29.914062 -49.152344 21.777344 -49.152344 C 10.773438 -49.152344 3.972656 -39.453125 3.972656 -22.394531 C 3.972656 -4.523438 12.921875 0.652344 21.027344 0.652344 Z M 21.027344 -4.785156 C 15.070312 -4.785156 10.710938 -9.863281 10.710938 -15.59375 C 10.710938 -21.257812 15.300781 -26.335938 21.191406 -26.335938 C 27.050781 -26.335938 31.378906 -21.582031 31.378906 -15.65625 C 31.378906 -9.601562 26.855469 -4.785156 21.027344 -4.785156 Z "/>
</g>
<g id="glyph-0-1">
<path d="M 21.027344 0.652344 C 31.867188 0.652344 38.085938 -8.429688 38.085938 -24.21875 C 38.085938 -39.941406 31.769531 -49.152344 21.027344 -49.152344 C 10.285156 -49.152344 3.972656 -39.941406 3.972656 -24.21875 C 3.972656 -8.398438 10.222656 0.652344 21.027344 0.652344 Z M 21.027344 -4.753906 C 13.933594 -4.753906 9.929688 -11.914062 9.929688 -24.21875 C 9.929688 -36.554688 13.933594 -43.78125 21.027344 -43.78125 C 28.125 -43.78125 32.128906 -36.589844 32.128906 -24.21875 C 32.128906 -11.914062 28.125 -4.753906 21.027344 -4.753906 Z "/>
</g>
</g>
</defs>
<g fill="rgb(98.823529%, 38.431373%, 33.333333%)" fill-opacity="1">
<use xlink:href="#glyph-0-0" x="30" y="84.583984"/>
<use xlink:href="#glyph-0-1" x="71" y="84.583984"/>
</g>
</svg>
