<?xml version="1.0" encoding="UTF-8"?>
<svg xmlns="http://www.w3.org/2000/svg" xmlns:xlink="http://www.w3.org/1999/xlink" width="1920" height="1080" viewBox="0 0 1920 1080">
<defs>
<g>
<g id="glyph-0-0">
<path d="M 1.253906 -43.832031 L 8.175781 -43.832031 L 20.769531 -22.765625 L 33.359375 -43.832031 L 40.3125 -43.832031 L 23.75 -17.664062 L 23.75 0 L 17.8125 0 L 17.8125 -17.664062 Z "/>
</g>
<g id="glyph-0-1">
<path d="M 8.054688 -8.503906 C 8.054688 -6.953125 8.625 -5.730469 9.757812 -4.832031 C 10.890625 -3.9375 12.234375 -3.492188 13.785156 -3.492188 C 15.675781 -3.492188 17.503906 -3.929688 19.277344 -4.804688 C 22.261719 -6.257812 23.75 -8.632812 23.75 -11.9375 L 23.75 -16.261719 C 23.09375 -15.84375 22.25 -15.496094 21.214844 -15.21875 C 20.179688 -14.941406 19.167969 -14.742188 18.171875 -14.621094 L 14.917969 -14.203125 C 12.96875 -13.945312 11.507812 -13.535156 10.53125 -12.980469 C 8.882812 -12.046875 8.054688 -10.554688 8.054688 -8.503906 Z M 21.066406 -19.367188 C 22.300781 -19.523438 23.125 -20.042969 23.542969 -20.917969 C 23.78125 -21.394531 23.902344 -22.082031 23.902344 -22.976562 C 23.902344 -24.804688 23.25 -26.132812 21.945312 -26.960938 C 20.644531 -27.785156 18.777344 -28.199219 16.351562 -28.199219 C 13.546875 -28.199219 11.558594 -27.441406 10.382812 -25.929688 C 9.726562 -25.09375 9.300781 -23.851562 9.101562 -22.199219 L 4.089844 -22.199219 C 4.1875 -26.136719 5.464844 -28.878906 7.921875 -30.421875 C 10.378906 -31.964844 13.230469 -32.734375 16.472656 -32.734375 C 20.230469 -32.734375 23.285156 -32.015625 25.632812 -30.585938 C 27.960938 -29.152344 29.121094 -26.925781 29.121094 -23.902344 L 29.121094 -5.492188 C 29.121094 -4.933594 29.238281 -4.484375 29.464844 -4.148438 C 29.695312 -3.808594 30.175781 -3.640625 30.914062 -3.640625 C 31.152344 -3.640625 31.421875 -3.65625 31.71875 -3.683594 C 32.015625 -3.714844 32.335938 -3.757812 32.671875 -3.820312 L 32.671875 0.148438 C 31.835938 0.386719 31.203125 0.535156 30.765625 0.597656 C 30.328125 0.65625 29.730469 0.6875 28.972656 0.6875 C 27.125 0.6875 25.78125 0.03125 24.945312 -1.28125 C 24.507812 -1.980469 24.199219 -2.964844 24.019531 -4.238281 C 22.925781 -2.804688 21.355469 -1.5625 19.304688 -0.507812 C 17.257812 0.546875 15 1.074219 12.53125 1.074219 C 9.566406 1.074219 7.144531 0.175781 5.265625 -1.625 C 3.386719 -3.425781 2.445312 -5.679688 2.445312 -8.386719 C 2.445312 -11.347656 3.371094 -13.644531 5.222656 -15.277344 C 7.070312 -16.910156 9.5 -17.914062 12.503906 -18.292969 Z "/>
</g>
<g id="glyph-0-2">
<path d="M 3.9375 -43.984375 L 9.308594 -43.984375 L 9.308594 -27.632812 C 10.582031 -29.242188 11.726562 -30.375 12.742188 -31.03125 C 14.472656 -32.167969 16.628906 -32.734375 19.214844 -32.734375 C 23.851562 -32.734375 26.996094 -31.113281 28.644531 -27.871094 C 29.539062 -26.101562 29.988281 -23.640625 29.988281 -20.5 L 29.988281 0 L 24.46875 0 L 24.46875 -20.140625 C 24.46875 -22.488281 24.167969 -24.210938 23.574219 -25.304688 C 22.597656 -27.054688 20.769531 -27.929688 18.082031 -27.929688 C 15.855469 -27.929688 13.835938 -27.164062 12.023438 -25.632812 C 10.214844 -24.101562 9.308594 -21.207031 9.308594 -16.949219 L 9.308594 0 L 3.9375 0 Z "/>
</g>
<g id="glyph-0-3">
<path d="M 5.011719 -40.878906 L 10.445312 -40.878906 L 10.445312 -31.957031 L 15.546875 -31.957031 L 15.546875 -27.570312 L 10.445312 -27.570312 L 10.445312 -6.714844 C 10.445312 -5.601562 10.820312 -4.855469 11.578125 -4.476562 C 11.996094 -4.257812 12.691406 -4.148438 13.667969 -4.148438 C 13.925781 -4.148438 14.203125 -4.152344 14.5 -4.164062 C 14.800781 -4.171875 15.148438 -4.199219 15.546875 -4.238281 L 15.546875 0 C 14.929688 0.179688 14.289062 0.308594 13.621094 0.386719 C 12.953125 0.46875 12.234375 0.507812 11.457031 0.507812 C 8.953125 0.507812 7.25 -0.132812 6.355469 -1.417969 C 5.460938 -2.699219 5.011719 -4.367188 5.011719 -6.414062 L 5.011719 -27.570312 L 0.6875 -27.570312 L 0.6875 -31.957031 L 5.011719 -31.957031 Z "/>
</g>
<g id="glyph-0-4">
<path d="M 1.550781 -4.238281 L 20.5 -27.152344 L 2.953125 -27.152344 L 2.953125 -31.957031 L 27.71875 -31.957031 L 27.71875 -27.570312 L 8.890625 -4.804688 L 28.289062 -4.804688 L 28.289062 0 L 1.550781 0 Z "/>
</g>
<g id="glyph-0-5">
<path d="M 17.246094 -32.671875 C 19.515625 -32.671875 21.710938 -32.140625 23.839844 -31.078125 C 25.96875 -30.011719 27.589844 -28.636719 28.707031 -26.945312 C 29.78125 -25.332031 30.496094 -23.453125 30.855469 -21.304688 C 31.171875 -19.832031 31.332031 -17.484375 31.332031 -14.261719 L 7.90625 -14.261719 C 8.007812 -11.019531 8.773438 -8.417969 10.203125 -6.460938 C 11.636719 -4.5 13.855469 -3.519531 16.859375 -3.519531 C 19.664062 -3.519531 21.902344 -4.445312 23.574219 -6.296875 C 24.527344 -7.371094 25.203125 -8.613281 25.601562 -10.027344 L 30.882812 -10.027344 C 30.742188 -8.851562 30.28125 -7.542969 29.496094 -6.101562 C 28.710938 -4.660156 27.828125 -3.480469 26.855469 -2.566406 C 25.222656 -0.976562 23.203125 0.0976562 20.796875 0.65625 C 19.503906 0.976562 18.042969 1.132812 16.410156 1.132812 C 12.433594 1.132812 9.0625 -0.3125 6.296875 -3.207031 C 3.53125 -6.101562 2.148438 -10.15625 2.148438 -15.367188 C 2.148438 -20.5 3.539062 -24.667969 6.324219 -27.871094 C 9.109375 -31.074219 12.75 -32.671875 17.246094 -32.671875 Z M 25.8125 -18.53125 C 25.59375 -20.859375 25.085938 -22.71875 24.289062 -24.109375 C 22.816406 -26.695312 20.359375 -27.988281 16.917969 -27.988281 C 14.453125 -27.988281 12.382812 -27.097656 10.710938 -25.320312 C 9.039062 -23.539062 8.15625 -21.273438 8.054688 -18.53125 Z "/>
</g>
<g id="glyph-0-6">
<rect x="0" y="0" width="0" height="0" mask="url(#mask-0)"/>
</g>
<g id="glyph-0-7">
<path d="M 21.125 -25.304688 C 23.632812 -25.304688 25.582031 -25.652344 26.972656 -26.347656 C 29.160156 -27.441406 30.257812 -29.410156 30.257812 -32.257812 C 30.257812 -35.121094 29.09375 -37.050781 26.765625 -38.042969 C 25.453125 -38.601562 23.503906 -38.878906 20.917969 -38.878906 L 10.324219 -38.878906 L 10.324219 -25.304688 Z M 23.125 -5.074219 C 26.765625 -5.074219 29.363281 -6.125 30.914062 -8.234375 C 31.886719 -9.566406 32.375 -11.179688 32.375 -13.070312 C 32.375 -16.253906 30.953125 -18.421875 28.109375 -19.574219 C 26.597656 -20.191406 24.597656 -20.5 22.109375 -20.5 L 10.324219 -20.5 L 10.324219 -5.074219 Z M 4.503906 -43.832031 L 23.335938 -43.832031 C 28.46875 -43.832031 32.117188 -42.300781 34.285156 -39.238281 C 35.558594 -37.429688 36.195312 -35.339844 36.195312 -32.972656 C 36.195312 -30.207031 35.410156 -27.9375 33.835938 -26.167969 C 33.019531 -25.234375 31.847656 -24.378906 30.316406 -23.601562 C 32.5625 -22.746094 34.246094 -21.78125 35.359375 -20.707031 C 37.328125 -18.796875 38.3125 -16.164062 38.3125 -12.800781 C 38.3125 -9.976562 37.429688 -7.421875 35.65625 -5.132812 C 33.011719 -1.710938 28.804688 0 23.035156 0 L 4.503906 0 Z "/>
</g>
<g id="glyph-0-8">
<path d="M 16.621094 -3.460938 C 20.179688 -3.460938 22.621094 -4.808594 23.945312 -7.503906 C 25.269531 -10.199219 25.929688 -13.199219 25.929688 -16.5 C 25.929688 -19.484375 25.453125 -21.910156 24.496094 -23.78125 C 22.984375 -26.726562 20.378906 -28.199219 16.679688 -28.199219 C 13.398438 -28.199219 11.011719 -26.945312 9.519531 -24.4375 C 8.027344 -21.929688 7.28125 -18.90625 7.28125 -15.367188 C 7.28125 -11.964844 8.027344 -9.128906 9.519531 -6.863281 C 11.011719 -4.59375 13.378906 -3.460938 16.621094 -3.460938 Z M 16.828125 -32.882812 C 20.945312 -32.882812 24.429688 -31.511719 27.273438 -28.765625 C 30.117188 -26.019531 31.539062 -21.980469 31.539062 -16.648438 C 31.539062 -11.496094 30.285156 -7.242188 27.78125 -3.878906 C 25.273438 -0.515625 21.382812 1.164062 16.113281 1.164062 C 11.71875 1.164062 8.226562 -0.324219 5.640625 -3.296875 C 3.054688 -6.269531 1.761719 -10.265625 1.761719 -15.277344 C 1.761719 -20.648438 3.125 -24.925781 5.847656 -28.109375 C 8.574219 -31.292969 12.234375 -32.882812 16.828125 -32.882812 Z "/>
</g>
<g id="glyph-0-9">
<path d="M 3.9375 -31.957031 L 9.042969 -31.957031 L 9.042969 -27.421875 C 10.554688 -29.292969 12.15625 -30.632812 13.84375 -31.449219 C 15.535156 -32.265625 17.417969 -32.671875 19.484375 -32.671875 C 24.019531 -32.671875 27.082031 -31.09375 28.675781 -27.929688 C 29.550781 -26.199219 29.988281 -23.722656 29.988281 -20.5 L 29.988281 0 L 24.527344 0 L 24.527344 -20.140625 C 24.527344 -22.089844 24.238281 -23.664062 23.664062 -24.855469 C 22.707031 -26.84375 20.976562 -27.839844 18.46875 -27.839844 C 17.195312 -27.839844 16.152344 -27.710938 15.335938 -27.453125 C 13.863281 -27.015625 12.570312 -26.140625 11.457031 -24.824219 C 10.5625 -23.769531 9.980469 -22.683594 9.710938 -21.558594 C 9.445312 -20.433594 9.308594 -18.828125 9.308594 -16.738281 L 9.308594 0 L 3.9375 0 Z "/>
</g>
<g id="glyph-0-10">
<path d="M 9.308594 -31.957031 L 9.308594 -10.742188 C 9.308594 -9.109375 9.570312 -7.777344 10.085938 -6.742188 C 11.039062 -4.832031 12.820312 -3.878906 15.425781 -3.878906 C 19.167969 -3.878906 21.710938 -5.550781 23.066406 -8.890625 C 23.800781 -10.683594 24.167969 -13.140625 24.167969 -16.261719 L 24.167969 -31.957031 L 29.539062 -31.957031 L 29.539062 0 L 24.46875 0 L 24.527344 -4.714844 C 23.832031 -3.5 22.964844 -2.476562 21.933594 -1.640625 C 19.882812 0.03125 17.394531 0.867188 14.472656 0.867188 C 9.917969 0.867188 6.8125 -0.65625 5.164062 -3.699219 C 4.269531 -5.332031 3.820312 -7.507812 3.820312 -10.234375 L 3.820312 -31.957031 Z "/>
</g>
<g id="glyph-0-11">
<path d="M 7.132812 -10.027344 C 7.292969 -8.234375 7.738281 -6.863281 8.472656 -5.90625 C 9.828125 -4.175781 12.175781 -3.3125 15.515625 -3.3125 C 17.503906 -3.3125 19.257812 -3.746094 20.769531 -4.609375 C 22.28125 -5.476562 23.035156 -6.8125 23.035156 -8.625 C 23.035156 -9.996094 22.429688 -11.039062 21.214844 -11.757812 C 20.441406 -12.195312 18.90625 -12.703125 16.621094 -13.277344 L 12.351562 -14.351562 C 9.628906 -15.027344 7.617188 -15.785156 6.324219 -16.621094 C 4.019531 -18.074219 2.863281 -20.082031 2.863281 -22.648438 C 2.863281 -25.671875 3.953125 -28.117188 6.132812 -29.988281 C 8.308594 -31.859375 11.238281 -32.792969 14.917969 -32.792969 C 19.734375 -32.792969 23.203125 -31.378906 25.332031 -28.554688 C 26.664062 -26.765625 27.3125 -24.835938 27.273438 -22.765625 L 22.199219 -22.765625 C 22.101562 -23.980469 21.671875 -25.085938 20.917969 -26.078125 C 19.683594 -27.492188 17.546875 -28.199219 14.5 -28.199219 C 12.472656 -28.199219 10.9375 -27.808594 9.890625 -27.035156 C 8.847656 -26.257812 8.324219 -25.234375 8.324219 -23.960938 C 8.324219 -22.566406 9.011719 -21.453125 10.382812 -20.617188 C 11.179688 -20.121094 12.351562 -19.683594 13.90625 -19.304688 L 17.457031 -18.441406 C 21.316406 -17.507812 23.902344 -16.601562 25.214844 -15.726562 C 27.304688 -14.351562 28.347656 -12.195312 28.347656 -9.25 C 28.347656 -6.40625 27.269531 -3.949219 25.109375 -1.878906 C 22.949219 0.1875 19.664062 1.222656 15.246094 1.222656 C 10.492188 1.222656 7.125 0.144531 5.148438 -2.015625 C 3.167969 -4.171875 2.109375 -6.84375 1.96875 -10.027344 Z "/>
</g>
</g>
<image id="source-53" x="0" y="0" width="0" height="0"/>
<mask id="mask-0">
<use xlink:href="#source-53"/>
</mask>
</defs>
<g fill="rgb(100%, 100%, 100%)" fill-opacity="1">
<use xlink:href="#glyph-0-0" x="30" y="67.056641"/>
<use xlink:href="#glyph-0-1" x="67" y="67.056641"/>
<use xlink:href="#glyph-0-2" x="101" y="67.056641"/>
<use xlink:href="#glyph-0-3" x="135" y="67.056641"/>
<use xlink:href="#glyph-0-4" x="152" y="67.056641"/>
<use xlink:href="#glyph-0-5" x="183" y="67.056641"/>
<use xlink:href="#glyph-0-5" x="217" y="67.056641"/>
<use xlink:href="#glyph-0-6" x="251" y="67.056641"/>
<use xlink:href="#glyph-0-7" x="268" y="67.056641"/>
<use xlink:href="#glyph-0-8" x="309" y="67.056641"/>
<use xlink:href="#glyph-0-9" x="343" y="67.056641"/>
<use xlink:href="#glyph-0-10" x="377" y="67.056641"/>
<use xlink:href="#glyph-0-11" x="411" y="67.056641"/>
</g>
</svg>
