<?xml version="1.0" encoding="UTF-8"?>
<svg xmlns="http://www.w3.org/2000/svg" xmlns:xlink="http://www.w3.org/1999/xlink" width="1920" height="1080" viewBox="0 0 1920 1080">
<defs>
<g>
<g id="glyph-0-0">
<path d="M 3.191406 -43.035156 L 18.457031 -43.035156 L 18.457031 0 L 24.640625 0 L 24.640625 -43.035156 L 39.84375 -43.035156 L 39.84375 -48.503906 L 3.191406 -48.503906 Z "/>
</g>
<g id="glyph-0-1">
<path d="M 19.953125 0.78125 C 29.882812 0.78125 36.589844 -6.738281 36.589844 -17.96875 C 36.589844 -29.363281 29.882812 -36.847656 19.953125 -36.847656 C 10.058594 -36.847656 3.386719 -29.363281 3.386719 -17.96875 C 3.386719 -6.738281 10.058594 0.78125 19.953125 0.78125 Z M 19.953125 -4.460938 C 12.695312 -4.460938 9.34375 -10.808594 9.34375 -17.96875 C 9.34375 -25.226562 12.695312 -31.609375 19.953125 -31.609375 C 27.3125 -31.609375 30.664062 -25.195312 30.664062 -17.96875 C 30.664062 -10.808594 27.3125 -4.460938 19.953125 -4.460938 Z "/>
</g>
<g id="glyph-0-2">
<path d="M 19.464844 -36.394531 L 11.980469 -36.394531 L 11.980469 -45.050781 L 6.121094 -45.050781 L 6.121094 -36.394531 L 0.652344 -36.394531 L 0.652344 -31.378906 L 6.121094 -31.378906 L 6.121094 -8.984375 C 6.121094 -3.027344 9.832031 0.457031 16.113281 0.457031 C 17.609375 0.457031 19.269531 0.226562 20.476562 -0.195312 L 19.269531 -5.144531 C 18.292969 -4.949219 17.023438 -4.753906 16.277344 -4.753906 C 13.183594 -4.753906 11.980469 -6.183594 11.980469 -9.441406 L 11.980469 -31.378906 L 19.464844 -31.378906 Z "/>
</g>
<g id="glyph-0-3">
<path d="M 15.332031 0.847656 C 21.484375 0.847656 24.902344 -2.375 26.140625 -4.949219 L 26.53125 -4.949219 L 26.53125 0 L 32.292969 0 L 32.292969 -23.992188 C 32.292969 -35.351562 23.535156 -36.847656 18.652344 -36.847656 C 13.019531 -36.847656 6.769531 -34.832031 3.972656 -28.222656 L 9.601562 -26.367188 C 10.742188 -28.90625 13.574219 -31.707031 18.816406 -31.707031 C 23.859375 -31.707031 26.433594 -29.101562 26.433594 -24.578125 L 26.433594 -24.382812 C 26.433594 -21.679688 23.566406 -21.875 17.089844 -21.0625 C 10.351562 -20.214844 2.929688 -18.683594 2.929688 -10.351562 C 2.929688 -3.191406 8.429688 0.847656 15.332031 0.847656 Z M 16.339844 -4.328125 C 11.980469 -4.328125 8.820312 -6.28125 8.820312 -10.058594 C 8.820312 -14.191406 12.566406 -15.558594 16.828125 -16.113281 C 19.074219 -16.40625 25.457031 -17.058594 26.433594 -18.195312 L 26.433594 -13.152344 C 26.433594 -8.691406 22.820312 -4.328125 16.339844 -4.328125 Z "/>
</g>
<g id="glyph-0-4">
<path d="M 11.003906 -48.503906 L 5.144531 -48.503906 L 5.144531 0 L 11.003906 0 Z "/>
</g>
<g id="glyph-0-5">
<rect x="0" y="0" width="0" height="0" mask="url(#mask-0)"/>
</g>
<g id="glyph-0-6">
<path d="M 21.386719 0.847656 C 32.585938 0.847656 38.996094 -5.273438 38.996094 -13.214844 C 38.996094 -22.265625 30.46875 -25.195312 25.261719 -26.628906 L 20.410156 -27.960938 C 16.863281 -28.9375 11.164062 -30.730469 11.164062 -35.808594 C 11.164062 -40.363281 15.332031 -43.683594 21.613281 -43.683594 C 27.375 -43.683594 31.738281 -40.984375 32.292969 -36.261719 L 38.347656 -36.261719 C 38.054688 -43.585938 31.378906 -49.152344 21.808594 -49.152344 C 12.433594 -49.152344 5.144531 -43.71875 5.144531 -35.515625 C 5.144531 -29.070312 9.699219 -25.066406 17.511719 -22.851562 L 23.371094 -21.191406 C 28.546875 -19.726562 32.976562 -18 32.976562 -13.3125 C 32.976562 -8.136719 27.960938 -4.6875 21.386719 -4.6875 C 15.691406 -4.6875 10.613281 -7.195312 10.125 -12.695312 L 3.777344 -12.695312 C 4.328125 -4.558594 10.871094 0.847656 21.386719 0.847656 Z "/>
</g>
<g id="glyph-0-7">
<path d="M 19.953125 0.78125 C 27.082031 0.78125 32.878906 -3.09375 34.832031 -9.570312 L 29.230469 -11.164062 C 28.15625 -7.226562 24.835938 -4.460938 19.953125 -4.460938 C 12.695312 -4.460938 9.34375 -10.808594 9.34375 -17.96875 C 9.34375 -25.226562 12.695312 -31.609375 19.953125 -31.609375 C 24.738281 -31.609375 27.996094 -28.9375 29.070312 -25.195312 L 34.699219 -26.789062 C 32.714844 -33.136719 26.984375 -36.847656 19.953125 -36.847656 C 10.058594 -36.847656 3.386719 -29.363281 3.386719 -17.96875 C 3.386719 -6.738281 10.058594 0.78125 19.953125 0.78125 Z "/>
</g>
<g id="glyph-0-8">
<path d="M 5.144531 0 L 11.003906 0 L 11.003906 -22.785156 C 11.003906 -27.703125 14.84375 -31.25 20.085938 -31.25 C 21.648438 -31.25 23.242188 -30.988281 23.601562 -30.925781 L 23.601562 -36.816406 C 22.917969 -36.847656 21.484375 -36.914062 20.636719 -36.914062 C 16.308594 -36.914062 12.53125 -34.472656 11.199219 -30.792969 L 10.808594 -30.792969 L 10.808594 -36.394531 L 5.144531 -36.394531 Z "/>
</g>
<g id="glyph-0-9">
<path d="M 20.441406 0.78125 C 27.898438 0.78125 33.332031 -2.960938 35.027344 -8.464844 L 29.363281 -10.027344 C 27.996094 -6.316406 24.773438 -4.425781 20.476562 -4.425781 C 14.03125 -4.425781 9.601562 -8.59375 9.308594 -16.210938 L 35.613281 -16.210938 L 35.613281 -18.652344 C 35.613281 -32.097656 27.472656 -36.847656 19.757812 -36.847656 C 9.832031 -36.847656 3.386719 -29.070312 3.386719 -17.902344 C 3.386719 -6.707031 9.894531 0.78125 20.441406 0.78125 Z M 9.34375 -21.160156 C 9.699219 -26.726562 13.507812 -31.640625 19.757812 -31.640625 C 25.75 -31.640625 29.101562 -27.34375 29.65625 -21.160156 Z "/>
</g>
</g>
<image id="source-53" x="0" y="0" width="0" height="0"/>
<mask id="mask-0">
<use xlink:href="#source-53"/>
</mask>
</defs>
<g fill="rgb(0%, 0%, 0%)" fill-opacity="1">
<use xlink:href="#glyph-0-0" x="30" y="84.583984"/>
<use xlink:href="#glyph-0-1" x="68" y="84.583984"/>
<use xlink:href="#glyph-0-2" x="108" y="84.583984"/>
<use xlink:href="#glyph-0-3" x="130" y="84.583984"/>
<use xlink:href="#glyph-0-4" x="167" y="84.583984"/>
<use xlink:href="#glyph-0-5" x="183" y="84.583984"/>
<use xlink:href="#glyph-0-6" x="202" y="84.583984"/>
<use xlink:href="#glyph-0-7" x="245" y="84.583984"/>
<use xlink:href="#glyph-0-1" x="283" y="84.583984"/>
<use xlink:href="#glyph-0-8" x="323" y="84.583984"/>
<use xlink:href="#glyph-0-9" x="347" y="84.583984"/>
</g>
</svg>
