<?xml version="1.0" encoding="UTF-8"?>
<svg xmlns="http://www.w3.org/2000/svg" xmlns:xlink="http://www.w3.org/1999/xlink" width="1920" height="1080" viewBox="0 0 1920 1080">
<defs>
<g>
<g id="glyph-0-0">
<path d="M 3.191406 -43.035156 L 18.457031 -43.035156 L 18.457031 0 L 24.640625 0 L 24.640625 -43.035156 L 39.84375 -43.035156 L 39.84375 -48.503906 L 3.191406 -48.503906 Z "/>
</g>
<g id="glyph-0-1">
<path d="M 19.953125 0.78125 C 29.882812 0.78125 36.589844 -6.738281 36.589844 -17.96875 C 36.589844 -29.363281 29.882812 -36.847656 19.953125 -36.847656 C 10.058594 -36.847656 3.386719 -29.363281 3.386719 -17.96875 C 3.386719 -6.738281 10.058594 0.78125 19.953125 0.78125 Z M 19.953125 -4.460938 C 12.695312 -4.460938 9.34375 -10.808594 9.34375 -17.96875 C 9.34375 -25.226562 12.695312 -31.609375 19.953125 -31.609375 C 27.3125 -31.609375 30.664062 -25.195312 30.664062 -17.96875 C 30.664062 -10.808594 27.3125 -4.460938 19.953125 -4.460938 Z "/>
</g>
<g id="glyph-0-2">
<path d="M 5.144531 13.605469 L 11.003906 13.605469 L 11.003906 -5.632812 L 11.457031 -5.632812 C 12.664062 -3.613281 15.105469 0.78125 22.039062 0.78125 C 31.121094 0.78125 37.433594 -6.511719 37.433594 -18.097656 C 37.433594 -29.621094 31.085938 -36.847656 22.003906 -36.847656 C 14.910156 -36.847656 12.664062 -32.488281 11.457031 -30.566406 L 10.808594 -30.566406 L 10.808594 -36.394531 L 5.144531 -36.394531 Z M 21.160156 -4.460938 C 14.550781 -4.460938 10.9375 -10.058594 10.9375 -18.164062 C 10.9375 -26.203125 14.453125 -31.609375 21.160156 -31.609375 C 28.058594 -31.609375 31.476562 -25.714844 31.476562 -18.164062 C 31.476562 -10.515625 27.960938 -4.460938 21.160156 -4.460938 Z "/>
</g>
<g id="glyph-0-3">
<rect x="0" y="0" width="0" height="0" mask="url(#mask-0)"/>
</g>
<g id="glyph-0-4">
<path d="M 19.464844 -36.394531 L 11.980469 -36.394531 L 11.980469 -45.050781 L 6.121094 -45.050781 L 6.121094 -36.394531 L 0.652344 -36.394531 L 0.652344 -31.378906 L 6.121094 -31.378906 L 6.121094 -8.984375 C 6.121094 -3.027344 9.832031 0.457031 16.113281 0.457031 C 17.609375 0.457031 19.269531 0.226562 20.476562 -0.195312 L 19.269531 -5.144531 C 18.292969 -4.949219 17.023438 -4.753906 16.277344 -4.753906 C 13.183594 -4.753906 11.980469 -6.183594 11.980469 -9.441406 L 11.980469 -31.378906 L 19.464844 -31.378906 Z "/>
</g>
<g id="glyph-0-5">
<path d="M 15.332031 0.847656 C 21.484375 0.847656 24.902344 -2.375 26.140625 -4.949219 L 26.53125 -4.949219 L 26.53125 0 L 32.292969 0 L 32.292969 -23.992188 C 32.292969 -35.351562 23.535156 -36.847656 18.652344 -36.847656 C 13.019531 -36.847656 6.769531 -34.832031 3.972656 -28.222656 L 9.601562 -26.367188 C 10.742188 -28.90625 13.574219 -31.707031 18.816406 -31.707031 C 23.859375 -31.707031 26.433594 -29.101562 26.433594 -24.578125 L 26.433594 -24.382812 C 26.433594 -21.679688 23.566406 -21.875 17.089844 -21.0625 C 10.351562 -20.214844 2.929688 -18.683594 2.929688 -10.351562 C 2.929688 -3.191406 8.429688 0.847656 15.332031 0.847656 Z M 16.339844 -4.328125 C 11.980469 -4.328125 8.820312 -6.28125 8.820312 -10.058594 C 8.820312 -14.191406 12.566406 -15.558594 16.828125 -16.113281 C 19.074219 -16.40625 25.457031 -17.058594 26.433594 -18.195312 L 26.433594 -13.152344 C 26.433594 -8.691406 22.820312 -4.328125 16.339844 -4.328125 Z "/>
</g>
<g id="glyph-0-6">
<path d="M 11.003906 -48.503906 L 5.144531 -48.503906 L 5.144531 0 L 11.003906 0 Z "/>
</g>
</g>
<image id="source-53" x="0" y="0" width="0" height="0"/>
<mask id="mask-0">
<use xlink:href="#source-53"/>
</mask>
</defs>
<g fill="rgb(0%, 0%, 0%)" fill-opacity="1">
<use xlink:href="#glyph-0-0" x="30" y="84.583984"/>
<use xlink:href="#glyph-0-1" x="68" y="84.583984"/>
<use xlink:href="#glyph-0-2" x="108" y="84.583984"/>
<use xlink:href="#glyph-0-3" x="149" y="84.583984"/>
<use xlink:href="#glyph-0-0" x="168" y="84.583984"/>
<use xlink:href="#glyph-0-1" x="206" y="84.583984"/>
<use xlink:href="#glyph-0-4" x="246" y="84.583984"/>
<use xlink:href="#glyph-0-5" x="268" y="84.583984"/>
<use xlink:href="#glyph-0-6" x="305" y="84.583984"/>
</g>
</svg>
