<?xml version="1.0" encoding="UTF-8"?>
<svg xmlns="http://www.w3.org/2000/svg" xmlns:xlink="http://www.w3.org/1999/xlink" width="1920" height="1080" viewBox="0 0 1920 1080">
<defs>
<g>
<g id="glyph-0-0">
<path d="M 5.859375 0 L 12.042969 0 L 12.042969 -20.964844 L 32.976562 -20.964844 L 32.976562 -26.433594 L 12.042969 -26.433594 L 12.042969 -43.035156 L 35.1875 -43.035156 L 35.1875 -48.503906 L 5.859375 -48.503906 Z "/>
</g>
<g id="glyph-0-1">
<path d="M 5.144531 0 L 11.003906 0 L 11.003906 -36.394531 L 5.144531 -36.394531 Z M 8.105469 -42.351562 C 10.351562 -42.351562 12.207031 -44.074219 12.207031 -46.222656 C 12.207031 -48.371094 10.351562 -50.097656 8.105469 -50.097656 C 5.890625 -50.097656 4.035156 -48.371094 4.035156 -46.222656 C 4.035156 -44.074219 5.890625 -42.351562 8.105469 -42.351562 Z "/>
</g>
<g id="glyph-0-2">
<path d="M 15.65625 0 L 21.808594 0 L 35.710938 -36.394531 L 29.296875 -36.394531 L 21.550781 -14.8125 C 20.410156 -11.652344 19.5625 -8.464844 18.75 -5.4375 C 17.902344 -8.464844 17.058594 -11.652344 15.917969 -14.8125 L 8.171875 -36.394531 L 1.757812 -36.394531 Z "/>
</g>
<g id="glyph-0-3">
<path d="M 20.441406 0.78125 C 27.898438 0.78125 33.332031 -2.960938 35.027344 -8.464844 L 29.363281 -10.027344 C 27.996094 -6.316406 24.773438 -4.425781 20.476562 -4.425781 C 14.03125 -4.425781 9.601562 -8.59375 9.308594 -16.210938 L 35.613281 -16.210938 L 35.613281 -18.652344 C 35.613281 -32.097656 27.472656 -36.847656 19.757812 -36.847656 C 9.832031 -36.847656 3.386719 -29.070312 3.386719 -17.902344 C 3.386719 -6.707031 9.894531 0.78125 20.441406 0.78125 Z M 9.34375 -21.160156 C 9.699219 -26.726562 13.507812 -31.640625 19.757812 -31.640625 C 25.75 -31.640625 29.101562 -27.34375 29.65625 -21.160156 Z "/>
</g>
<g id="glyph-0-4">
<path d="M 17.511719 0.78125 C 26.042969 0.78125 31.867188 -3.875 31.867188 -10.253906 C 31.867188 -15.234375 28.777344 -18.523438 22.167969 -20.085938 L 16.667969 -21.386719 C 12.402344 -22.394531 10.546875 -23.894531 10.546875 -26.59375 C 10.546875 -29.621094 13.800781 -31.867188 18.132812 -31.867188 C 22.820312 -31.867188 24.871094 -29.328125 25.878906 -26.726562 L 31.183594 -28.09375 C 29.523438 -33.203125 25.585938 -36.847656 18.097656 -36.847656 C 10.351562 -36.847656 4.621094 -32.488281 4.621094 -26.238281 C 4.621094 -21.125 7.78125 -17.871094 14.386719 -16.308594 L 20.441406 -14.875 C 24.023438 -14.03125 25.78125 -12.371094 25.78125 -9.863281 C 25.78125 -6.867188 22.527344 -4.363281 17.449219 -4.363281 C 13.085938 -4.363281 10.125 -6.152344 9.082031 -10.15625 L 3.515625 -8.820312 C 4.816406 -2.539062 10.027344 0.78125 17.511719 0.78125 Z "/>
</g>
</g>
</defs>
<g fill="rgb(0%, 0%, 0%)" fill-opacity="1">
<use xlink:href="#glyph-0-0" x="30" y="84.583984"/>
<use xlink:href="#glyph-0-1" x="69" y="84.583984"/>
<use xlink:href="#glyph-0-2" x="85" y="84.583984"/>
<use xlink:href="#glyph-0-3" x="121" y="84.583984"/>
<use xlink:href="#glyph-0-4" x="160" y="84.583984"/>
</g>
</svg>
