<?xml version="1.0" encoding="UTF-8"?>
<svg xmlns="http://www.w3.org/2000/svg" xmlns:xlink="http://www.w3.org/1999/xlink" width="1920" height="1080" viewBox="0 0 1920 1080">
<defs>
<g>
<g id="glyph-0-0">
<path d="M 25.519531 0.652344 C 37.957031 0.652344 47.003906 -8.855469 47.003906 -24.21875 C 47.003906 -39.617188 37.957031 -49.152344 25.519531 -49.152344 C 13.085938 -49.152344 3.972656 -39.617188 3.972656 -24.21875 C 3.972656 -8.855469 13.085938 0.652344 25.519531 0.652344 Z M 25.519531 -5.078125 C 16.796875 -5.078125 9.992188 -11.847656 9.992188 -24.21875 C 9.992188 -36.652344 16.796875 -43.425781 25.519531 -43.425781 C 34.179688 -43.425781 40.984375 -36.6875 40.984375 -24.21875 C 40.984375 -11.816406 34.179688 -5.078125 25.519531 -5.078125 Z "/>
</g>
<g id="glyph-0-1">
<path d="M 11.003906 -21.808594 C 11.003906 -28.027344 14.941406 -31.574219 20.183594 -31.574219 C 25.261719 -31.574219 28.386719 -28.222656 28.386719 -22.625 L 28.386719 0 L 34.246094 0 L 34.246094 -23.113281 C 34.246094 -32.324219 29.296875 -36.847656 21.941406 -36.847656 C 17.058594 -36.847656 13.152344 -34.796875 10.808594 -29.65625 L 10.773438 -36.394531 L 5.144531 -36.394531 L 5.144531 0 L 11.003906 0 Z "/>
</g>
<g id="glyph-0-2">
<path d="M 20.441406 0.78125 C 27.898438 0.78125 33.332031 -2.960938 35.027344 -8.464844 L 29.363281 -10.027344 C 27.996094 -6.316406 24.773438 -4.425781 20.476562 -4.425781 C 14.03125 -4.425781 9.601562 -8.59375 9.308594 -16.210938 L 35.613281 -16.210938 L 35.613281 -18.652344 C 35.613281 -32.097656 27.472656 -36.847656 19.757812 -36.847656 C 9.832031 -36.847656 3.386719 -29.070312 3.386719 -17.902344 C 3.386719 -6.707031 9.894531 0.78125 20.441406 0.78125 Z M 9.34375 -21.160156 C 9.699219 -26.726562 13.507812 -31.640625 19.757812 -31.640625 C 25.75 -31.640625 29.101562 -27.34375 29.65625 -21.160156 Z "/>
</g>
<g id="glyph-0-3">
<path d="M 17.511719 0.78125 C 26.042969 0.78125 31.867188 -3.875 31.867188 -10.253906 C 31.867188 -15.234375 28.777344 -18.523438 22.167969 -20.085938 L 16.667969 -21.386719 C 12.402344 -22.394531 10.546875 -23.894531 10.546875 -26.59375 C 10.546875 -29.621094 13.800781 -31.867188 18.132812 -31.867188 C 22.820312 -31.867188 24.871094 -29.328125 25.878906 -26.726562 L 31.183594 -28.09375 C 29.523438 -33.203125 25.585938 -36.847656 18.097656 -36.847656 C 10.351562 -36.847656 4.621094 -32.488281 4.621094 -26.238281 C 4.621094 -21.125 7.78125 -17.871094 14.386719 -16.308594 L 20.441406 -14.875 C 24.023438 -14.03125 25.78125 -12.371094 25.78125 -9.863281 C 25.78125 -6.867188 22.527344 -4.363281 17.449219 -4.363281 C 13.085938 -4.363281 10.125 -6.152344 9.082031 -10.15625 L 3.515625 -8.820312 C 4.816406 -2.539062 10.027344 0.78125 17.511719 0.78125 Z "/>
</g>
</g>
</defs>
<g fill="rgb(0%, 0%, 0%)" fill-opacity="1">
<use xlink:href="#glyph-0-0" x="30" y="84.583984"/>
<use xlink:href="#glyph-0-1" x="81" y="84.583984"/>
<use xlink:href="#glyph-0-2" x="120" y="84.583984"/>
<use xlink:href="#glyph-0-3" x="159" y="84.583984"/>
</g>
</svg>
