<?xml version="1.0" encoding="UTF-8"?>
<svg xmlns="http://www.w3.org/2000/svg" xmlns:xlink="http://www.w3.org/1999/xlink" width="854" height="480" viewBox="0 0 854 480">
<defs>
<g>
<g id="glyph-0-0">
<path d="M 21.257812 -48.503906 L 13.671875 -48.503906 L 3.125 -40.722656 L 3.125 -34.082031 L 14.84375 -42.773438 L 15.167969 -42.773438 L 15.167969 0 L 21.257812 0 Z "/>
</g>
<g id="glyph-0-1">
<path d="M 21.027344 0.652344 C 31.867188 0.652344 38.085938 -8.429688 38.085938 -24.21875 C 38.085938 -39.941406 31.769531 -49.152344 21.027344 -49.152344 C 10.285156 -49.152344 3.972656 -39.941406 3.972656 -24.21875 C 3.972656 -8.398438 10.222656 0.652344 21.027344 0.652344 Z M 21.027344 -4.753906 C 13.933594 -4.753906 9.929688 -11.914062 9.929688 -24.21875 C 9.929688 -36.554688 13.933594 -43.78125 21.027344 -43.78125 C 28.125 -43.78125 32.128906 -36.589844 32.128906 -24.21875 C 32.128906 -11.914062 28.125 -4.753906 21.027344 -4.753906 Z "/>
</g>
</g>
</defs>
<g fill="rgb(0%, 0%, 0%)" fill-opacity="1">
<use xlink:href="#glyph-0-0" x="30" y="84.583984"/>
<use xlink:href="#glyph-0-1" x="57" y="84.583984"/>
</g>
</svg>
