<?xml version="1.0" encoding="UTF-8"?>
<svg xmlns="http://www.w3.org/2000/svg" xmlns:xlink="http://www.w3.org/1999/xlink" width="1920" height="1080" viewBox="0 0 1920 1080">
<defs>
<g>
<g id="glyph-0-0">
<path d="M 3.191406 -43.035156 L 18.457031 -43.035156 L 18.457031 0 L 24.640625 0 L 24.640625 -43.035156 L 39.84375 -43.035156 L 39.84375 -48.503906 L 3.191406 -48.503906 Z "/>
</g>
<g id="glyph-0-1">
<path d="M 19.953125 0.78125 C 29.882812 0.78125 36.589844 -6.738281 36.589844 -17.96875 C 36.589844 -29.363281 29.882812 -36.847656 19.953125 -36.847656 C 10.058594 -36.847656 3.386719 -29.363281 3.386719 -17.96875 C 3.386719 -6.738281 10.058594 0.78125 19.953125 0.78125 Z M 19.953125 -4.460938 C 12.695312 -4.460938 9.34375 -10.808594 9.34375 -17.96875 C 9.34375 -25.226562 12.695312 -31.609375 19.953125 -31.609375 C 27.3125 -31.609375 30.664062 -25.195312 30.664062 -17.96875 C 30.664062 -10.808594 27.3125 -4.460938 19.953125 -4.460938 Z "/>
</g>
<g id="glyph-0-2">
<path d="M 5.144531 13.605469 L 11.003906 13.605469 L 11.003906 -5.632812 L 11.457031 -5.632812 C 12.664062 -3.613281 15.105469 0.78125 22.039062 0.78125 C 31.121094 0.78125 37.433594 -6.511719 37.433594 -18.097656 C 37.433594 -29.621094 31.085938 -36.847656 22.003906 -36.847656 C 14.910156 -36.847656 12.664062 -32.488281 11.457031 -30.566406 L 10.808594 -30.566406 L 10.808594 -36.394531 L 5.144531 -36.394531 Z M 21.160156 -4.460938 C 14.550781 -4.460938 10.9375 -10.058594 10.9375 -18.164062 C 10.9375 -26.203125 14.453125 -31.609375 21.160156 -31.609375 C 28.058594 -31.609375 31.476562 -25.714844 31.476562 -18.164062 C 31.476562 -10.515625 27.960938 -4.460938 21.160156 -4.460938 Z "/>
</g>
<g id="glyph-0-3">
<rect x="0" y="0" width="0" height="0" mask="url(#mask-0)"/>
</g>
<g id="glyph-0-4">
<path d="M 5.859375 0 L 23.601562 0 C 35.027344 0 39.84375 -5.597656 39.84375 -12.921875 C 39.84375 -20.539062 34.539062 -24.707031 30.011719 -25 L 30.011719 -25.457031 C 34.246094 -26.59375 37.957031 -29.425781 37.957031 -35.644531 C 37.957031 -42.742188 33.171875 -48.503906 23.046875 -48.503906 L 5.859375 -48.503906 Z M 12.042969 -5.46875 L 12.042969 -22.003906 L 23.761719 -22.003906 C 29.980469 -22.003906 33.886719 -17.839844 33.886719 -12.988281 C 33.886719 -8.789062 30.988281 -5.46875 23.4375 -5.46875 Z M 12.042969 -27.214844 L 12.042969 -43.035156 L 22.917969 -43.035156 C 29.199219 -43.035156 32.03125 -39.714844 32.03125 -35.515625 C 32.03125 -30.5 27.929688 -27.214844 22.722656 -27.214844 Z "/>
</g>
<g id="glyph-0-5">
<path d="M 11.003906 -21.808594 C 11.003906 -28.027344 14.941406 -31.574219 20.183594 -31.574219 C 25.261719 -31.574219 28.386719 -28.222656 28.386719 -22.625 L 28.386719 0 L 34.246094 0 L 34.246094 -23.113281 C 34.246094 -32.324219 29.296875 -36.847656 21.941406 -36.847656 C 17.058594 -36.847656 13.152344 -34.796875 10.808594 -29.65625 L 10.773438 -36.394531 L 5.144531 -36.394531 L 5.144531 0 L 11.003906 0 Z "/>
</g>
<g id="glyph-0-6">
<path d="M 17.480469 0.457031 C 22.265625 0.457031 26.238281 -1.496094 28.613281 -6.804688 L 28.613281 0 L 34.277344 0 L 34.277344 -36.394531 L 28.386719 -36.394531 L 28.386719 -14.582031 C 28.386719 -8.367188 24.445312 -4.816406 19.238281 -4.816406 C 14.160156 -4.816406 11.003906 -8.171875 11.003906 -13.769531 L 11.003906 -36.394531 L 5.144531 -36.394531 L 5.144531 -13.28125 C 5.144531 -4.070312 10.125 0.457031 17.480469 0.457031 Z "/>
</g>
<g id="glyph-0-7">
<path d="M 17.511719 0.78125 C 26.042969 0.78125 31.867188 -3.875 31.867188 -10.253906 C 31.867188 -15.234375 28.777344 -18.523438 22.167969 -20.085938 L 16.667969 -21.386719 C 12.402344 -22.394531 10.546875 -23.894531 10.546875 -26.59375 C 10.546875 -29.621094 13.800781 -31.867188 18.132812 -31.867188 C 22.820312 -31.867188 24.871094 -29.328125 25.878906 -26.726562 L 31.183594 -28.09375 C 29.523438 -33.203125 25.585938 -36.847656 18.097656 -36.847656 C 10.351562 -36.847656 4.621094 -32.488281 4.621094 -26.238281 C 4.621094 -21.125 7.78125 -17.871094 14.386719 -16.308594 L 20.441406 -14.875 C 24.023438 -14.03125 25.78125 -12.371094 25.78125 -9.863281 C 25.78125 -6.867188 22.527344 -4.363281 17.449219 -4.363281 C 13.085938 -4.363281 10.125 -6.152344 9.082031 -10.15625 L 3.515625 -8.820312 C 4.816406 -2.539062 10.027344 0.78125 17.511719 0.78125 Z "/>
</g>
</g>
<image id="source-53" x="0" y="0" width="0" height="0"/>
<mask id="mask-0">
<use xlink:href="#source-53"/>
</mask>
</defs>
<g fill="rgb(0%, 0%, 0%)" fill-opacity="1">
<use xlink:href="#glyph-0-0" x="30" y="84.583984"/>
<use xlink:href="#glyph-0-1" x="68" y="84.583984"/>
<use xlink:href="#glyph-0-2" x="108" y="84.583984"/>
<use xlink:href="#glyph-0-3" x="149" y="84.583984"/>
<use xlink:href="#glyph-0-4" x="168" y="84.583984"/>
<use xlink:href="#glyph-0-1" x="212" y="84.583984"/>
<use xlink:href="#glyph-0-5" x="252" y="84.583984"/>
<use xlink:href="#glyph-0-6" x="291" y="84.583984"/>
<use xlink:href="#glyph-0-7" x="330" y="84.583984"/>
</g>
</svg>
