<?xml version="1.0" encoding="UTF-8"?>
<svg xmlns="http://www.w3.org/2000/svg" xmlns:xlink="http://www.w3.org/1999/xlink" width="1920" height="1080" viewBox="0 0 1920 1080">
<defs>
<g>
<g id="glyph-0-0">
<path d="M 21.679688 0.652344 C 32.519531 0.652344 40.363281 -5.144531 40.363281 -13.019531 C 40.363281 -19.074219 35.675781 -24.089844 29.914062 -25.066406 L 29.914062 -25.359375 C 34.960938 -26.433594 38.574219 -30.828125 38.574219 -36.132812 C 38.574219 -43.585938 31.378906 -49.152344 21.679688 -49.152344 C 11.945312 -49.152344 4.816406 -43.621094 4.816406 -36.132812 C 4.816406 -30.828125 8.332031 -26.433594 13.507812 -25.359375 L 13.507812 -25.066406 C 7.585938 -24.089844 3.058594 -19.074219 3.058594 -13.019531 C 3.058594 -5.144531 10.808594 0.652344 21.679688 0.652344 Z M 21.679688 -6.707031 C 16.667969 -6.707031 13.378906 -9.636719 13.378906 -13.800781 C 13.378906 -18.097656 16.863281 -21.160156 21.679688 -21.160156 C 26.464844 -21.160156 29.980469 -18.066406 29.980469 -13.800781 C 29.980469 -9.601562 26.660156 -6.707031 21.679688 -6.707031 Z M 21.679688 -28.449219 C 17.511719 -28.449219 14.519531 -31.183594 14.519531 -35.058594 C 14.519531 -38.964844 17.449219 -41.570312 21.679688 -41.570312 C 25.910156 -41.570312 28.839844 -38.933594 28.839844 -35.058594 C 28.839844 -31.183594 25.8125 -28.449219 21.679688 -28.449219 Z "/>
</g>
<g id="glyph-0-1">
<path d="M 20.703125 0.714844 C 32.617188 0.714844 40.265625 -9.082031 40.265625 -25.421875 C 40.265625 -43.164062 30.890625 -49.152344 21.125 -49.21875 C 10.351562 -49.285156 3.058594 -42.121094 3.058594 -32.324219 C 3.058594 -23.210938 9.40625 -16.632812 18.035156 -16.632812 C 23.339844 -16.632812 27.996094 -19.238281 30.207031 -23.4375 L 30.535156 -23.4375 C 30.535156 -13.835938 27.082031 -7.84375 20.703125 -7.84375 C 16.863281 -7.84375 14.160156 -10.058594 13.378906 -13.507812 L 3.546875 -13.507812 C 4.523438 -5.46875 11.132812 0.714844 20.703125 0.714844 Z M 21.0625 -23.925781 C 16.242188 -23.925781 12.726562 -27.667969 12.726562 -32.585938 C 12.726562 -37.46875 16.339844 -41.277344 21.125 -41.277344 C 25.976562 -41.277344 29.523438 -37.335938 29.523438 -32.648438 C 29.523438 -27.863281 25.847656 -23.925781 21.0625 -23.925781 Z "/>
</g>
</g>
</defs>
<g fill="rgb(0%, 0%, 0%)" fill-opacity="1">
<use xlink:href="#glyph-0-0" x="30" y="84.583984"/>
<use xlink:href="#glyph-0-1" x="73" y="84.583984"/>
</g>
</svg>
